<svg width="88" height="78" viewBox="0 0 88 78" fill="none" xmlns="http://www.w3.org/2000/svg">
<g clip-path="url(#clip0_20_58)">
<path opacity="0.2" d="M88 43C88 47.5963 87.0947 52.1475 85.3358 56.3939C83.5769 60.6403 80.9988 64.4987 77.7487 67.7487C74.4987 70.9988 70.6403 73.5769 66.3939 75.3358C62.1475 77.0947 57.5963 78 53 78C48.4037 78 43.8525 77.0947 39.6061 75.3358C35.3597 73.5769 31.5013 70.9988 28.2513 67.7487C25.0012 64.4987 22.4231 60.6403 20.6642 56.3939C18.9053 52.1475 18 47.5963 18 43C18 33.7174 21.6875 24.815 28.2513 18.2513C34.815 11.6875 43.7174 8 53 8C62.2826 8 71.185 11.6875 77.7487 18.2513C84.3125 24.815 88 33.7174 88 43Z" fill="#4F4F4F"/>
<path fill-rule="evenodd" clip-rule="evenodd" d="M43 3C43 2.33696 43.2634 1.70107 43.7322 1.23223C44.2011 0.763393 44.837 0.5 45.5 0.5C52.9168 0.5 60.167 2.69934 66.3339 6.81989C72.5007 10.9404 77.3072 16.7971 80.1455 23.6494C82.9838 30.5016 83.7264 38.0416 82.2794 45.3159C80.8325 52.5902 77.261 59.272 72.0165 64.5165C66.772 69.761 60.0902 73.3325 52.8159 74.7794C45.5416 76.2264 38.0016 75.4838 31.1494 72.6455C24.2971 69.8072 18.4404 65.0007 14.3199 58.8339C10.1993 52.667 8 45.4168 8 38C8 37.337 8.26339 36.7011 8.73223 36.2322C9.20107 35.7634 9.83696 35.5 10.5 35.5C11.163 35.5 11.7989 35.7634 12.2678 36.2322C12.7366 36.7011 13 37.337 13 38C13 44.4279 14.9061 50.7114 18.4772 56.056C22.0484 61.4006 27.1242 65.5662 33.0628 68.0261C39.0014 70.4859 45.536 71.1295 51.8404 69.8755C58.1448 68.6215 63.9358 65.5262 68.481 60.981C73.0262 56.4358 76.1215 50.6448 77.3755 44.3404C78.6295 38.036 77.9859 31.5014 75.5261 25.5628C73.0662 19.6242 68.9006 14.5484 63.556 10.9772C58.2114 7.40609 51.9279 5.5 45.5 5.5C44.837 5.5 44.2011 5.23661 43.7322 4.76777C43.2634 4.29893 43 3.66304 43 3Z" fill="#4F4F4F"/>
<path d="M33 4.25C33 5.24456 32.6049 6.19839 31.9017 6.90165C31.1984 7.60491 30.2446 8 29.25 8C28.2554 8 27.3016 7.60491 26.5983 6.90165C25.8951 6.19839 25.5 5.24456 25.5 4.25C25.5 3.25544 25.8951 2.30161 26.5983 1.59835C27.3016 0.895088 28.2554 0.5 29.25 0.5C30.2446 0.5 31.1984 0.895088 31.9017 1.59835C32.6049 2.30161 33 3.25544 33 4.25ZM20.5 11.75C20.5 12.7446 20.1049 13.6984 19.4017 14.4017C18.6984 15.1049 17.7446 15.5 16.75 15.5C15.7554 15.5 14.8016 15.1049 14.0983 14.4017C13.3951 13.6984 13 12.7446 13 11.75C13 10.7554 13.3951 9.80161 14.0983 9.09835C14.8016 8.39509 15.7554 8 16.75 8C17.7446 8 18.6984 8.39509 19.4017 9.09835C20.1049 9.80161 20.5 10.7554 20.5 11.75ZM13 24.25C13 25.2446 12.6049 26.1984 11.9017 26.9017C11.1984 27.6049 10.2446 28 9.25 28C8.25544 28 7.30161 27.6049 6.59835 26.9017C5.89509 26.1984 5.5 25.2446 5.5 24.25C5.5 23.2554 5.89509 22.3016 6.59835 21.5983C7.30161 20.8951 8.25544 20.5 9.25 20.5C10.2446 20.5 11.1984 20.8951 11.9017 21.5983C12.6049 22.3016 13 23.2554 13 24.25Z" fill="#4F4F4F"/>
<path fill-rule="evenodd" clip-rule="evenodd" d="M22.735 44.12C23.032 43.5272 23.0814 42.8408 22.8723 42.2116C22.6632 41.5824 22.2127 41.0621 21.62 40.765L11.62 35.765C11.0279 35.474 10.3449 35.4289 9.71968 35.6393C9.09447 35.8498 8.57779 36.2989 8.28224 36.8886C7.98669 37.4784 7.93623 38.1611 8.14186 38.7879C8.34748 39.4147 8.79252 39.9349 9.37999 40.235L19.38 45.235C19.9728 45.532 20.6592 45.5814 21.2884 45.3723C21.9176 45.1632 22.4379 44.7127 22.735 44.12Z" fill="#4F4F4F"/>
<path fill-rule="evenodd" clip-rule="evenodd" d="M12.27 36.23C12.5028 36.4622 12.6875 36.7381 12.8135 37.0418C12.9396 37.3456 13.0045 37.6712 13.0045 38C13.0045 38.3288 12.9396 38.6544 12.8135 38.9582C12.6875 39.2619 12.5028 39.5378 12.27 39.77L4.76999 47.27C4.30122 47.7394 3.66516 48.0034 3.00175 48.0039C2.33834 48.0044 1.70192 47.7413 1.23249 47.2725C0.763054 46.8037 0.499066 46.1677 0.498597 45.5043C0.498128 44.8409 0.761217 44.2044 1.22999 43.735L8.72999 36.235C8.96221 36.0022 9.23809 35.8175 9.54182 35.6914C9.84554 35.5654 10.1712 35.5005 10.5 35.5005C10.8288 35.5005 11.1544 35.5654 11.4582 35.6914C11.7619 35.8175 12.0378 36.0022 12.27 36.235V36.23ZM45.5 20.5C46.163 20.5 46.7989 20.7634 47.2678 21.2322C47.7366 21.7011 48 22.337 48 23V38C48 38.663 47.7366 39.2989 47.2678 39.7678C46.7989 40.2366 46.163 40.5 45.5 40.5C44.8369 40.5 44.2011 40.2366 43.7322 39.7678C43.2634 39.2989 43 38.663 43 38V23C43 22.337 43.2634 21.7011 43.7322 21.2322C44.2011 20.7634 44.8369 20.5 45.5 20.5Z" fill="#4F4F4F"/>
<path fill-rule="evenodd" clip-rule="evenodd" d="M63 38C63 38.663 62.7366 39.2989 62.2678 39.7678C61.7989 40.2366 61.163 40.5 60.5 40.5H45.5C44.837 40.5 44.2011 40.2366 43.7322 39.7678C43.2634 39.2989 43 38.663 43 38C43 37.337 43.2634 36.7011 43.7322 36.2322C44.2011 35.7634 44.837 35.5 45.5 35.5H60.5C61.163 35.5 61.7989 35.7634 62.2678 36.2322C62.7366 36.7011 63 37.337 63 38Z" fill="#4F4F4F"/>
</g>
<defs>
<clipPath id="clip0_20_58">
<rect width="88" height="78" fill="white"/>
</clipPath>
</defs>
</svg>
