<svg width="405" height="120" viewBox="0 0 405 120" fill="none" xmlns="http://www.w3.org/2000/svg">
<path d="M389.37 120H14.9758C6.73921 120 0 113.25 0 105V15.0001C0 6.74999 6.73907 0 14.9758 0H389.37C397.607 0 404.346 6.74999 404.346 15.0001V105C404.346 113.25 397.607 120 389.37 120Z" fill="black"/>
<path d="M389.37 0H14.9758C6.73921 0 0 6.74999 0 15.0001V105C0 113.25 6.73907 120 14.9758 120H389.37C397.607 120 404.346 113.25 404.346 105V15.0001C404.346 6.74999 397.607 0 389.37 0ZM389.37 2.39992C396.307 2.39992 401.95 8.05323 401.95 15.0001V105C401.95 111.948 396.307 117.601 389.37 117.601H14.9758C8.04029 117.601 2.39615 111.948 2.39615 105V15.0001C2.39615 8.05323 8.04015 2.40006 14.9758 2.40006H389.37" fill="#A6A6A6"/>
<path d="M142.026 30.7304C142.026 33.2439 141.283 35.2454 139.794 36.7384C138.104 38.5138 135.9 39.4022 133.192 39.4022C130.598 39.4022 128.393 38.5022 126.579 36.6997C124.762 34.8986 123.856 32.665 123.856 30.0002C123.856 27.3341 124.762 25.1019 126.579 23.2993C128.393 21.4982 130.598 20.5969 133.192 20.5969C134.479 20.5969 135.711 20.8491 136.881 21.3518C138.051 21.8558 138.989 22.5248 139.691 23.3626L138.112 24.9458C136.922 23.522 135.284 22.8107 133.192 22.8107C131.3 22.8107 129.665 23.4764 128.284 24.8088C126.903 26.1425 126.213 27.8721 126.213 30.0002C126.213 32.1284 126.903 33.8579 128.284 35.1917C129.665 36.5241 131.3 37.1897 133.192 37.1897C135.199 37.1897 136.872 36.5204 138.211 35.18C139.081 34.3067 139.584 33.0928 139.718 31.5341H133.192V29.372H141.9C141.984 29.8422 142.025 30.2933 142.025 30.7304" fill="white"/>
<path d="M142.026 30.7301H141.726C141.724 33.1863 141.007 35.0939 139.582 36.5261L139.579 36.5285L139.578 36.5309C137.941 38.2451 135.837 39.0983 133.192 39.1019C130.667 39.0983 128.554 38.2358 126.79 36.4874C125.029 34.7354 124.159 32.5967 124.155 29.9999C124.159 27.4019 125.029 25.2643 126.79 23.5136C128.554 21.764 130.667 20.9003 133.192 20.8966C134.44 20.8966 135.629 21.1407 136.763 21.6268C137.898 22.1168 138.794 22.7588 139.462 23.5559L139.691 23.3623L139.48 23.1503L137.9 24.7345L138.112 24.9455L138.342 24.7535C137.097 23.2592 135.35 22.5059 133.192 22.5104C131.23 22.5079 129.504 23.2101 128.077 24.593C126.635 25.9804 125.911 27.8073 125.914 29.9999C125.911 32.1926 126.635 34.0193 128.077 35.4069C129.504 36.7898 131.23 37.4918 133.192 37.4894C135.265 37.493 137.032 36.7886 138.423 35.3918C139.352 34.4587 139.879 33.1664 140.017 31.5596L140.045 31.2338H133.491V29.6717H141.9V29.3717L141.605 29.4244C141.687 29.8793 141.726 30.3116 141.726 30.7301H142.325C142.325 30.2741 142.283 29.8055 142.195 29.3181L142.151 29.0717H132.893V31.8338H139.718V31.5338L139.42 31.5081C139.288 33.0176 138.808 34.1543 138 34.9677C136.713 36.252 135.133 36.8858 133.192 36.8894C131.37 36.887 129.825 36.2588 128.492 34.9757C127.173 33.6971 126.516 32.0648 126.513 29.9999C126.516 27.935 127.173 26.3026 128.492 25.0241C129.825 23.7409 131.37 23.1128 133.192 23.1103C135.217 23.1152 136.747 23.7854 137.883 25.139L138.093 25.3897L139.903 23.5746L140.097 23.3801L139.921 23.1701C139.185 22.2914 138.204 21.5939 136.999 21.0762C135.792 20.5569 134.518 20.2966 133.192 20.2966C130.529 20.2943 128.231 21.2318 126.368 23.087C124.497 24.9386 123.554 27.266 123.556 29.9999C123.554 32.7326 124.497 35.0613 126.369 36.914C128.231 38.768 130.529 39.7043 133.192 39.7019C135.965 39.7043 138.265 38.7819 140.011 36.9455L139.794 36.7381L140.006 36.9504C141.557 35.3976 142.327 33.2999 142.325 30.7301H142.026ZM155.831 23.2112H147.647V28.9184H155.028V31.0813H147.647V36.7886H155.831V38.9999H145.34V20.9999H155.831V23.2112Z" fill="white"/>
<path d="M155.831 23.2115V22.9115H147.348V29.2187H154.728V30.7808L147.348 30.7816V37.0888H155.532V38.7002H145.64V21.3002H155.532V23.2115H155.831H156.131V20.7002H145.041V39.3001H156.131V36.4889H147.947V31.3816H155.327V28.6187H147.947V23.5115H156.131V23.2115H155.831ZM165.569 39.0003H163.258V23.2114H158.239V21.0001H170.588V23.2114H165.569V39" fill="white"/>
<path d="M165.569 39.0003V38.7002H163.558V22.9115H158.539V21.3003H170.289V22.9115H165.269V39.0002H165.569H165.869V23.5115H170.888V20.7002H157.939V23.5113H162.959V39.3H165.869V39H165.569M179.523 39.0003V21.0001H181.832V39H179.523" fill="white"/>
<path d="M179.523 39.0003H179.823V21.3002H181.532V38.7002H179.523V39.0002V39.3001H182.131V20.7002H179.224V39.3001H179.523V39.0002M192.075 39.0003H189.764V23.2114H184.745V21.0001H197.094V23.2114H192.075V39" fill="white"/>
<path d="M192.075 39.0003V38.7002H190.064V22.9115H185.045V21.3003H196.795V22.9115H191.775V39.0002H192.075H192.375V23.5115H197.394V20.7002H184.446V23.5113H189.465V39.3H192.375V39H192.075M209 35.1672C210.33 36.5158 211.958 37.1896 213.882 37.1896C215.807 37.1896 217.436 36.5158 218.764 35.1672C220.095 33.8183 220.762 32.0942 220.762 30.0002C220.762 27.9063 220.095 26.1821 218.764 24.8333C217.436 23.4845 215.807 22.8107 213.882 22.8107C211.958 22.8107 210.33 23.4845 209 24.8333C207.672 26.1821 207.005 27.9062 207.005 30.0002C207.005 32.0942 207.672 33.8183 209 35.1672ZM220.472 36.674C218.705 38.4938 216.508 39.4022 213.882 39.4022C211.255 39.4022 209.058 38.4938 207.295 36.674C205.527 34.8563 204.648 32.6312 204.648 30.0002C204.648 27.3692 205.527 25.1437 207.295 23.3264C209.058 21.5062 211.255 20.5969 213.882 20.5969C216.494 20.5969 218.685 21.5111 220.46 23.3381C222.233 25.165 223.119 27.3856 223.119 30.0002C223.119 32.6312 222.235 34.8563 220.472 36.674Z" fill="white"/>
<path d="M209 35.1669L208.787 35.3777C210.167 36.7805 211.888 37.493 213.882 37.4894C215.876 37.493 217.599 36.7805 218.977 35.3777C220.365 33.9736 221.064 32.1573 221.061 29.9999C221.063 27.8426 220.365 26.0261 218.977 24.622C217.599 23.2193 215.876 22.5069 213.882 22.5104C211.888 22.5069 210.167 23.2193 208.787 24.622C207.402 26.0261 206.702 27.8426 206.706 29.9999C206.702 32.1571 207.402 33.9736 208.787 35.3777L209 35.1669L209.213 34.9559C207.943 33.6609 207.307 32.0319 207.305 29.9999C207.307 27.968 207.943 26.3391 209.213 25.0439C210.495 23.7492 212.027 23.114 213.882 23.1105C215.737 23.114 217.272 23.7492 218.551 25.0439C219.824 26.3391 220.459 27.968 220.461 29.9999C220.459 32.0317 219.824 33.6609 218.551 34.9559C217.272 36.2507 215.737 36.8858 213.882 36.8893C212.027 36.8858 210.495 36.2507 209.213 34.9559L209 35.1669ZM220.472 36.6737L220.258 36.4653C218.54 38.2277 216.44 39.0984 213.882 39.1019C211.324 39.0983 209.223 38.2277 207.509 36.4653C205.795 34.6967 204.95 32.564 204.947 29.9999C204.95 27.4357 205.795 25.303 207.509 23.5346C209.223 21.7721 211.324 20.9003 213.882 20.8968C216.424 20.9003 218.519 21.7757 220.246 23.5475C221.966 25.3241 222.816 27.4534 222.82 29.9999C222.816 32.564 221.968 34.6967 220.258 36.4653L220.472 36.6737L220.687 36.8821C222.503 35.0144 223.421 32.6975 223.419 29.9999C223.421 27.3176 222.499 25.0055 220.675 23.1294C218.85 21.2458 216.564 20.2934 213.882 20.2966C211.187 20.2934 208.894 21.2414 207.08 23.1176V23.1163C205.261 24.9854 204.346 27.3023 204.348 29.9999C204.346 32.6975 205.261 35.0144 207.08 36.8834L207.088 36.8918L207.08 36.8821C208.894 38.7584 211.187 39.7043 213.882 39.7019C216.577 39.7043 218.87 38.7584 220.687 36.8821L220.472 36.6737ZM226.36 39V20.9998H229.171L237.904 35.0025H238.004L237.904 31.5337V20.9998H240.215V38.9997H237.805L228.667 24.3184H228.568L228.667 27.7884V38.9997H226.36" fill="white"/>
<path d="M226.36 39.0003H226.66V21.3002H229.004L237.738 35.3029H238.311L238.204 31.5297V21.3003H239.916V38.7002H237.971L228.834 24.0188H228.26L228.368 27.7937V38.7002H226.36V39.0002V39.3002H228.967V27.7842L228.868 24.3107L228.568 24.3188V24.6188H228.667V24.3188L228.413 24.4783L237.639 39.3002H240.515V20.7002H237.605V31.5376L237.704 35.011L238.004 35.0029V34.7029H237.904V35.0029L238.158 34.8437L229.336 20.7002H226.061V39.3002H226.36V39.0002M320.29 90.0002H325.879V52.4966H320.29L320.29 90.0002ZM370.63 66.0063L364.223 82.2659H364.031L357.382 66.0062H351.362L361.333 88.7321L355.648 101.373H361.48L376.845 66.0062L370.63 66.0063ZM338.935 85.7406C337.102 85.7406 334.55 84.824 334.55 82.5554C334.55 79.6607 337.731 78.5511 340.474 78.5511C342.934 78.5511 344.087 79.0817 345.581 79.8063C345.147 83.2796 342.161 85.7406 338.935 85.7406ZM339.609 65.1858C335.562 65.1858 331.372 66.9715 329.638 70.9281L334.598 73.0022C335.658 70.9281 337.632 70.2518 339.705 70.2518C342.595 70.2518 345.533 71.9897 345.581 75.0776V75.4632C344.569 74.8842 342.403 74.0159 339.753 74.0159C334.406 74.0159 328.961 76.9583 328.961 82.4592C328.961 87.4773 333.346 90.7103 338.258 90.7103C342.017 90.7103 344.087 89.0216 345.39 87.0437H345.581V89.9382H350.976V75.5591C350.976 68.9019 346.016 65.1858 339.609 65.1858ZM305.069 70.5716H297.12V57.7163H305.069C309.247 57.7163 311.619 61.1814 311.619 64.1438C311.619 67.0502 309.247 70.5716 305.069 70.5716ZM304.925 52.4966H291.534V90.0002H297.119V75.7913H304.925C311.119 75.7913 317.208 71.2994 317.208 64.1438C317.208 56.9885 311.119 52.4966 304.925 52.4966ZM231.9 85.7475C228.039 85.7475 224.806 82.5096 224.806 78.0623C224.806 73.5684 228.039 70.2812 231.9 70.2812C235.712 70.2812 238.704 73.5682 238.704 78.0623C238.704 82.5096 235.712 85.7475 231.9 85.7475ZM238.317 68.1063H238.124C236.87 66.6083 234.456 65.2551 231.417 65.2551C225.047 65.2551 219.209 70.8612 219.209 78.0623C219.209 85.2156 225.047 90.7737 231.417 90.7737C234.456 90.7737 236.87 89.42 238.124 87.8744H238.317V89.7107C238.317 94.5929 235.712 97.2026 231.514 97.2026C228.088 97.2026 225.965 94.7369 225.095 92.6591L220.223 94.6889C221.622 98.072 225.338 102.229 231.514 102.229C238.076 102.229 243.626 98.3615 243.626 88.9373V66.0284H238.317V68.1063ZM247.485 90.0002H253.083V52.4953H247.485V90.0002ZM261.334 77.6276C261.189 72.6974 265.146 70.1849 267.993 70.1849C270.214 70.1849 272.095 71.2959 272.721 72.8922L261.334 77.6276ZM278.705 73.3748C277.645 70.5224 274.41 65.2551 267.8 65.2551C261.237 65.2551 255.785 70.4264 255.785 78.0143C255.785 85.1676 261.189 90.7737 268.427 90.7737C274.267 90.7737 277.645 87.197 279.044 85.1192L274.701 82.2188C273.254 84.3458 271.274 85.7475 268.427 85.7475C265.58 85.7475 263.554 84.4421 262.25 81.8813L279.283 74.8244L278.705 73.3748ZM143 69.17V74.583H155.932C155.546 77.6276 154.532 79.8507 152.988 81.3974C151.107 83.283 148.163 85.3608 143 85.3608C135.038 85.3608 128.814 78.9329 128.814 70.9583C128.814 62.9838 135.038 56.5551 143 56.5551C147.295 56.5551 150.431 58.247 152.747 60.4219L156.559 56.6041C153.326 53.5103 149.031 51.1422 143 51.1422C132.095 51.1422 122.927 60.0354 122.927 70.9583C122.927 81.8813 132.095 90.7737 143 90.7737C148.887 90.7737 153.326 88.8413 156.8 85.2156C160.371 81.6389 161.481 76.6128 161.481 72.5534C161.481 71.2959 161.385 70.1369 161.191 69.17H143ZM176.183 85.7475C172.322 85.7475 168.992 82.5574 168.992 78.0143C168.992 73.4228 172.322 70.2812 176.183 70.2812C180.043 70.2812 183.372 73.4228 183.372 78.0143C183.372 82.5576 180.043 85.7475 176.183 85.7475ZM176.183 65.2551C169.137 65.2551 163.395 70.6196 163.395 78.0143C163.395 85.3608 169.137 90.7737 176.183 90.7737C183.228 90.7737 188.97 85.3608 188.97 78.0143C188.97 70.6196 183.228 65.2551 176.183 65.2551ZM204.078 85.7475C200.218 85.7475 196.888 82.5574 196.888 78.0143C196.888 73.4228 200.218 70.2812 204.078 70.2812C207.938 70.2812 211.267 73.4228 211.267 78.0143C211.267 82.5576 207.937 85.7475 204.078 85.7475ZM204.078 65.2551C197.032 65.2551 191.291 70.6196 191.291 78.0143C191.291 85.3608 197.032 90.7737 204.078 90.7737C211.122 90.7737 216.865 85.3608 216.865 78.0143C216.865 70.6196 211.122 65.2551 204.078 65.2551Z" fill="white"/>
<path d="M31.4749 22.8337C30.4698 23.7421 29.8698 25.2571 29.8698 27.2682V26.8135V93.1769V92.7397C29.8698 94.597 30.3844 96.0313 31.2559 96.955L31.4784 97.1683V97.1692C32.1838 97.8068 33.0884 98.1454 34.1251 98.1443C35.138 98.1443 36.2777 97.8208 37.4805 97.1378L80.9558 72.3959L95.8893 63.8963C97.7859 62.8171 98.8506 61.4249 99.0286 60.0068V60.001C98.8506 58.5797 97.7859 57.1885 95.8894 56.1092L80.9546 47.6106L37.4806 22.8688C36.2753 22.1845 35.1348 21.8599 34.1191 21.8599C33.0837 21.8599 32.1803 22.1973 31.4752 22.8337H31.4749Z" fill="#00C1FF"/>
<path d="M31.4785 97.1685L31.2559 96.9552C30.3844 96.0316 29.8698 94.5972 29.8698 92.7399V93.177V26.8302V27.2684C29.8698 25.2573 30.4698 23.7422 31.4749 22.8339L68.5843 60.0024L31.4785 97.1685Z" fill="url(#paint0_linear_17_8)"/>
<path d="M80.9558 72.396L68.5844 60.0024L80.9548 47.6108L95.8894 56.1093C97.7859 57.1887 98.8506 58.5797 99.0286 60.0012V60.0069C98.8506 61.425 97.7859 62.8173 95.8894 63.8964L80.956 72.3959" fill="url(#paint1_linear_17_8)"/>
<path d="M34.1251 98.1445C33.0885 98.1455 32.1839 97.8068 31.4787 97.1693V97.1684L68.5845 60.0023L80.9559 72.3959L37.4805 97.1379C36.2777 97.8211 35.138 98.1445 34.1251 98.1445Z" fill="url(#paint2_linear_17_8)"/>
<path d="M68.5843 60.0027L31.4747 22.8342C32.1801 22.1978 33.0835 21.8603 34.1188 21.8603C35.1345 21.8603 36.2751 22.1849 37.4803 22.8692L80.9546 47.6111L68.5842 60.0027" fill="url(#paint3_linear_17_8)"/>
<path d="M34.1263 98.584C33.0897 98.584 32.1839 98.2453 31.4785 97.6078L31.4773 97.6089C31.4744 97.606 31.4713 97.6033 31.468 97.6008L31.2751 97.4121C31.269 97.4061 31.2633 97.3993 31.2562 97.3924L31.4787 97.1695C32.1841 97.807 33.0885 98.1457 34.1253 98.1444C35.1381 98.1444 36.2778 97.8211 37.4806 97.138L80.956 72.3961L81.2345 72.6752L80.9524 72.8356L37.4805 97.5762C36.3844 98.1985 35.3417 98.523 34.4 98.5771C34.3088 98.5816 34.2175 98.584 34.1263 98.584Z" fill="url(#paint4_linear_17_8)"/>
<path d="M31.2559 97.3923C30.3844 96.4688 29.8698 95.0356 29.8698 93.1771V92.74C29.8698 94.5972 30.3844 96.0315 31.2559 96.9552L31.4784 97.1685L31.2559 97.3923Z" fill="url(#paint5_linear_17_8)"/>
<path d="M81.2344 72.6752L80.9558 72.3961L95.8893 63.8966C97.7859 62.8175 98.8506 61.4252 99.0286 60.0071C99.0286 60.5275 98.9126 61.0478 98.6824 61.5542C98.2177 62.5748 97.2866 63.5393 95.8894 64.3349L81.2344 72.6753" fill="url(#paint6_linear_17_8)"/>
<path d="M99.0286 60.0012C98.8506 58.5797 97.7859 57.1887 95.8894 56.1093L80.9546 47.6109L81.2332 47.3318H81.2344L95.8894 55.6722C97.9803 56.8628 99.0274 58.4318 99.0286 60.0012Z" fill="url(#paint7_linear_17_8)"/>
<path d="M29.8698 27.2686V26.8101C29.8698 26.6448 29.8742 26.4832 29.8827 26.3262V26.3191C29.8827 26.3169 29.8827 26.3147 29.8835 26.3122V26.2946C29.9737 24.6948 30.4698 23.447 31.2559 22.6138L31.4749 22.834C30.4698 23.7424 29.8698 25.2575 29.8698 27.2686Z" fill="url(#paint8_linear_17_8)"/>
<path d="M80.9546 47.6111L37.4805 22.8689C36.2753 22.1847 35.1348 21.8602 34.1191 21.8602C33.0837 21.8602 32.1803 22.1976 31.475 22.834L31.2561 22.6137C31.3245 22.5412 31.3955 22.4713 31.4691 22.4041C31.4714 22.4016 31.475 22.3992 31.4773 22.3969C32.1771 21.7654 33.0708 21.4279 34.097 21.4218H34.1191C35.1348 21.4218 36.2753 21.7465 37.4805 22.431L81.2344 47.331L81.2332 47.332L80.9546 47.6111Z" fill="url(#paint9_linear_17_8)"/>
<defs>
<linearGradient id="paint0_linear_17_8" x1="53.585" y1="26.129" x2="21.6049" y2="58.1604" gradientUnits="userSpaceOnUse">
<stop stop-color="#00A0FF"/>
<stop offset="0.00657" stop-color="#00A1FF"/>
<stop offset="0.2601" stop-color="#00BEFF"/>
<stop offset="0.5122" stop-color="#00D2FF"/>
<stop offset="0.7604" stop-color="#00DFFF"/>
<stop offset="1" stop-color="#00E3FF"/>
</linearGradient>
<linearGradient id="paint1_linear_17_8" x1="101.339" y1="59.7882" x2="28.8655" y2="59.7882" gradientUnits="userSpaceOnUse">
<stop stop-color="#FFE000"/>
<stop offset="0.4087" stop-color="#FFBD00"/>
<stop offset="0.7754" stop-color="#FFA500"/>
<stop offset="1" stop-color="#FF9C00"/>
</linearGradient>
<linearGradient id="paint2_linear_17_8" x1="74.3878" y1="71.7857" x2="20.1952" y2="125.669" gradientUnits="userSpaceOnUse">
<stop stop-color="#FF3A44"/>
<stop offset="1" stop-color="#C31162"/>
</linearGradient>
<linearGradient id="paint3_linear_17_8" x1="21.9106" y1="17.3238" x2="46.063" y2="41.3753" gradientUnits="userSpaceOnUse">
<stop stop-color="#32A071"/>
<stop offset="0.0685" stop-color="#2DA771"/>
<stop offset="0.4762" stop-color="#15CF74"/>
<stop offset="0.8009" stop-color="#06E775"/>
<stop offset="1" stop-color="#00F076"/>
</linearGradient>
<linearGradient id="paint4_linear_17_8" x1="74.3608" y1="80.3827" x2="30.9608" y2="123.853" gradientUnits="userSpaceOnUse">
<stop stop-color="#CC2E36"/>
<stop offset="1" stop-color="#9C0E4E"/>
</linearGradient>
<linearGradient id="paint5_linear_17_8" x1="34.8133" y1="26.1289" x2="6.63937" y2="54.3487" gradientUnits="userSpaceOnUse">
<stop stop-color="#008DE0"/>
<stop offset="0.00657" stop-color="#008DE0"/>
<stop offset="0.2601" stop-color="#00A7E0"/>
<stop offset="0.5122" stop-color="#00B8E0"/>
<stop offset="0.7604" stop-color="#00C4E0"/>
<stop offset="1" stop-color="#00C7E0"/>
</linearGradient>
<linearGradient id="paint6_linear_17_8" x1="101.339" y1="60.0043" x2="28.8654" y2="60.0043" gradientUnits="userSpaceOnUse">
<stop stop-color="#E0C500"/>
<stop offset="0.4087" stop-color="#E0A600"/>
<stop offset="0.7754" stop-color="#E09100"/>
<stop offset="1" stop-color="#E08900"/>
</linearGradient>
<linearGradient id="paint7_linear_17_8" x1="101.339" y1="60.0042" x2="28.8657" y2="60.0042" gradientUnits="userSpaceOnUse">
<stop stop-color="#FFE840"/>
<stop offset="0.4087" stop-color="#FFCE40"/>
<stop offset="0.7754" stop-color="#FFBC40"/>
<stop offset="1" stop-color="#FFB540"/>
</linearGradient>
<linearGradient id="paint8_linear_17_8" x1="34.7827" y1="26.1801" x2="7.64626" y2="52.1829" gradientUnits="userSpaceOnUse">
<stop stop-color="#40B8FF"/>
<stop offset="0.00657" stop-color="#40B9FF"/>
<stop offset="0.2601" stop-color="#40CEFF"/>
<stop offset="0.5122" stop-color="#40DDFF"/>
<stop offset="0.7604" stop-color="#40E7FF"/>
<stop offset="1" stop-color="#40EAFF"/>
</linearGradient>
<linearGradient id="paint9_linear_17_8" x1="21.8566" y1="25.184" x2="41.2367" y2="44.5956" gradientUnits="userSpaceOnUse">
<stop stop-color="#65B895"/>
<stop offset="0.0685" stop-color="#62BD95"/>
<stop offset="0.4762" stop-color="#50DB97"/>
<stop offset="0.8009" stop-color="#44ED98"/>
<stop offset="1" stop-color="#40F498"/>
</linearGradient>
</defs>
</svg>
