<svg width="399" height="120" viewBox="0 0 399 120" fill="none" xmlns="http://www.w3.org/2000/svg">
<rect x="0.34613" width="398" height="120" rx="8" fill="url(#paint0_linear_17_32)"/>
<path d="M89.3941 73.432C87.4501 73.432 85.6381 73.12 83.9581 72.496C82.3021 71.848 80.8621 70.936 79.6381 69.76C78.4141 68.584 77.4541 67.204 76.7581 65.62C76.0861 64.036 75.7501 62.296 75.7501 60.4C75.7501 58.504 76.0861 56.764 76.7581 55.18C77.4541 53.596 78.4141 52.216 79.6381 51.04C80.8861 49.864 82.3381 48.964 83.9941 48.34C85.6501 47.692 87.4621 47.368 89.4301 47.368C91.6141 47.368 93.5821 47.752 95.3341 48.52C97.1101 49.264 98.5981 50.368 99.7981 51.832L96.0541 55.288C95.1901 54.304 94.2301 53.572 93.1741 53.092C92.1181 52.588 90.9661 52.336 89.7181 52.336C88.5421 52.336 87.4621 52.528 86.4781 52.912C85.4941 53.296 84.6421 53.848 83.9221 54.568C83.2021 55.288 82.6381 56.14 82.2301 57.124C81.8461 58.108 81.6541 59.2 81.6541 60.4C81.6541 61.6 81.8461 62.692 82.2301 63.676C82.6381 64.66 83.2021 65.512 83.9221 66.232C84.6421 66.952 85.4941 67.504 86.4781 67.888C87.4621 68.272 88.5421 68.464 89.7181 68.464C90.9661 68.464 92.1181 68.224 93.1741 67.744C94.2301 67.24 95.1901 66.484 96.0541 65.476L99.7981 68.932C98.5981 70.396 97.1101 71.512 95.3341 72.28C93.5821 73.048 91.6021 73.432 89.3941 73.432ZM111.889 73.288C109.825 73.288 107.989 72.856 106.381 71.992C104.797 71.128 103.537 69.952 102.601 68.464C101.689 66.952 101.233 65.236 101.233 63.316C101.233 61.372 101.689 59.656 102.601 58.168C103.537 56.656 104.797 55.48 106.381 54.64C107.989 53.776 109.825 53.344 111.889 53.344C113.929 53.344 115.753 53.776 117.361 54.64C118.969 55.48 120.229 56.644 121.141 58.132C122.053 59.62 122.509 61.348 122.509 63.316C122.509 65.236 122.053 66.952 121.141 68.464C120.229 69.952 118.969 71.128 117.361 71.992C115.753 72.856 113.929 73.288 111.889 73.288ZM111.889 68.68C112.825 68.68 113.665 68.464 114.409 68.032C115.153 67.6 115.741 66.988 116.173 66.196C116.605 65.38 116.821 64.42 116.821 63.316C116.821 62.188 116.605 61.228 116.173 60.436C115.741 59.644 115.153 59.032 114.409 58.6C113.665 58.168 112.825 57.952 111.889 57.952C110.953 57.952 110.113 58.168 109.369 58.6C108.625 59.032 108.025 59.644 107.569 60.436C107.137 61.228 106.921 62.188 106.921 63.316C106.921 64.42 107.137 65.38 107.569 66.196C108.025 66.988 108.625 67.6 109.369 68.032C110.113 68.464 110.953 68.68 111.889 68.68ZM151.066 53.344C152.602 53.344 153.958 53.656 155.134 54.28C156.334 54.88 157.27 55.816 157.942 57.088C158.638 58.336 158.986 59.944 158.986 61.912V73H153.37V62.776C153.37 61.216 153.046 60.064 152.398 59.32C151.75 58.576 150.838 58.204 149.662 58.204C148.846 58.204 148.114 58.396 147.466 58.78C146.818 59.14 146.314 59.692 145.954 60.436C145.594 61.18 145.414 62.128 145.414 63.28V73H139.798V62.776C139.798 61.216 139.474 60.064 138.826 59.32C138.202 58.576 137.302 58.204 136.126 58.204C135.31 58.204 134.578 58.396 133.93 58.78C133.282 59.14 132.778 59.692 132.418 60.436C132.058 61.18 131.878 62.128 131.878 63.28V73H126.262V53.632H131.626V58.924L130.618 57.376C131.29 56.056 132.238 55.06 133.462 54.388C134.71 53.692 136.126 53.344 137.71 53.344C139.486 53.344 141.034 53.8 142.354 54.712C143.698 55.6 144.586 56.968 145.018 58.816L143.038 58.276C143.686 56.764 144.718 55.564 146.134 54.676C147.574 53.788 149.218 53.344 151.066 53.344ZM164.02 73V53.632H169.636V73H164.02ZM166.828 50.932C165.796 50.932 164.956 50.632 164.308 50.032C163.66 49.432 163.336 48.688 163.336 47.8C163.336 46.912 163.66 46.168 164.308 45.568C164.956 44.968 165.796 44.668 166.828 44.668C167.86 44.668 168.7 44.956 169.348 45.532C169.996 46.084 170.32 46.804 170.32 47.692C170.32 48.628 169.996 49.408 169.348 50.032C168.724 50.632 167.884 50.932 166.828 50.932ZM186.62 53.344C188.156 53.344 189.524 53.656 190.724 54.28C191.948 54.88 192.908 55.816 193.604 57.088C194.3 58.336 194.648 59.944 194.648 61.912V73H189.032V62.776C189.032 61.216 188.684 60.064 187.988 59.32C187.316 58.576 186.356 58.204 185.108 58.204C184.22 58.204 183.416 58.396 182.696 58.78C182 59.14 181.448 59.704 181.04 60.472C180.656 61.24 180.464 62.224 180.464 63.424V73H174.848V53.632H180.212V58.996L179.204 57.376C179.9 56.08 180.896 55.084 182.192 54.388C183.488 53.692 184.964 53.344 186.62 53.344ZM208.988 80.272C207.164 80.272 205.4 80.044 203.696 79.588C202.016 79.156 200.612 78.496 199.484 77.608L201.716 73.576C202.532 74.248 203.564 74.776 204.812 75.16C206.084 75.568 207.332 75.772 208.556 75.772C210.548 75.772 211.988 75.328 212.876 74.44C213.788 73.552 214.244 72.232 214.244 70.48V67.564L214.604 62.704L214.532 57.808V53.632H219.86V69.76C219.86 73.36 218.924 76.012 217.052 77.716C215.18 79.42 212.492 80.272 208.988 80.272ZM208.124 72.064C206.324 72.064 204.692 71.68 203.228 70.912C201.788 70.12 200.624 69.028 199.736 67.636C198.872 66.22 198.44 64.576 198.44 62.704C198.44 60.808 198.872 59.164 199.736 57.772C200.624 56.356 201.788 55.264 203.228 54.496C204.692 53.728 206.324 53.344 208.124 53.344C209.756 53.344 211.196 53.68 212.444 54.352C213.692 55 214.664 56.02 215.36 57.412C216.056 58.78 216.404 60.544 216.404 62.704C216.404 64.84 216.056 66.604 215.36 67.996C214.664 69.364 213.692 70.384 212.444 71.056C211.196 71.728 209.756 72.064 208.124 72.064ZM209.24 67.456C210.224 67.456 211.1 67.264 211.868 66.88C212.636 66.472 213.236 65.908 213.668 65.188C214.1 64.468 214.316 63.64 214.316 62.704C214.316 61.744 214.1 60.916 213.668 60.22C213.236 59.5 212.636 58.948 211.868 58.564C211.1 58.156 210.224 57.952 209.24 57.952C208.256 57.952 207.38 58.156 206.612 58.564C205.844 58.948 205.232 59.5 204.776 60.22C204.344 60.916 204.128 61.744 204.128 62.704C204.128 63.64 204.344 64.468 204.776 65.188C205.232 65.908 205.844 66.472 206.612 66.88C207.38 67.264 208.256 67.456 209.24 67.456ZM241.798 73.288C240.142 73.288 238.546 73.096 237.01 72.712C235.498 72.304 234.298 71.8 233.41 71.2L235.282 67.168C236.17 67.72 237.214 68.176 238.414 68.536C239.638 68.872 240.838 69.04 242.014 69.04C243.31 69.04 244.222 68.884 244.75 68.572C245.302 68.26 245.578 67.828 245.578 67.276C245.578 66.82 245.362 66.484 244.93 66.268C244.522 66.028 243.97 65.848 243.274 65.728C242.578 65.608 241.81 65.488 240.97 65.368C240.154 65.248 239.326 65.092 238.486 64.9C237.646 64.684 236.878 64.372 236.182 63.964C235.486 63.556 234.922 63.004 234.49 62.308C234.082 61.612 233.878 60.712 233.878 59.608C233.878 58.384 234.226 57.304 234.922 56.368C235.642 55.432 236.674 54.7 238.018 54.172C239.362 53.62 240.97 53.344 242.842 53.344C244.162 53.344 245.506 53.488 246.874 53.776C248.242 54.064 249.382 54.484 250.294 55.036L248.422 59.032C247.486 58.48 246.538 58.108 245.578 57.916C244.642 57.7 243.73 57.592 242.842 57.592C241.594 57.592 240.682 57.76 240.106 58.096C239.53 58.432 239.242 58.864 239.242 59.392C239.242 59.872 239.446 60.232 239.854 60.472C240.286 60.712 240.85 60.904 241.546 61.048C242.242 61.192 242.998 61.324 243.814 61.444C244.654 61.54 245.494 61.696 246.334 61.912C247.174 62.128 247.93 62.44 248.602 62.848C249.298 63.232 249.862 63.772 250.294 64.468C250.726 65.14 250.942 66.028 250.942 67.132C250.942 68.332 250.582 69.4 249.862 70.336C249.142 71.248 248.098 71.968 246.73 72.496C245.386 73.024 243.742 73.288 241.798 73.288ZM263.623 73.288C261.559 73.288 259.723 72.856 258.115 71.992C256.531 71.128 255.271 69.952 254.335 68.464C253.423 66.952 252.967 65.236 252.967 63.316C252.967 61.372 253.423 59.656 254.335 58.168C255.271 56.656 256.531 55.48 258.115 54.64C259.723 53.776 261.559 53.344 263.623 53.344C265.663 53.344 267.487 53.776 269.095 54.64C270.703 55.48 271.963 56.644 272.875 58.132C273.787 59.62 274.243 61.348 274.243 63.316C274.243 65.236 273.787 66.952 272.875 68.464C271.963 69.952 270.703 71.128 269.095 71.992C267.487 72.856 265.663 73.288 263.623 73.288ZM263.623 68.68C264.559 68.68 265.399 68.464 266.143 68.032C266.887 67.6 267.475 66.988 267.907 66.196C268.339 65.38 268.555 64.42 268.555 63.316C268.555 62.188 268.339 61.228 267.907 60.436C267.475 59.644 266.887 59.032 266.143 58.6C265.399 58.168 264.559 57.952 263.623 57.952C262.687 57.952 261.847 58.168 261.103 58.6C260.359 59.032 259.759 59.644 259.303 60.436C258.871 61.228 258.655 62.188 258.655 63.316C258.655 64.42 258.871 65.38 259.303 66.196C259.759 66.988 260.359 67.6 261.103 68.032C261.847 68.464 262.687 68.68 263.623 68.68ZM287.213 73.288C285.149 73.288 283.313 72.856 281.705 71.992C280.121 71.128 278.861 69.952 277.925 68.464C277.013 66.952 276.557 65.236 276.557 63.316C276.557 61.372 277.013 59.656 277.925 58.168C278.861 56.656 280.121 55.48 281.705 54.64C283.313 53.776 285.149 53.344 287.213 53.344C289.253 53.344 291.077 53.776 292.685 54.64C294.293 55.48 295.553 56.644 296.465 58.132C297.377 59.62 297.833 61.348 297.833 63.316C297.833 65.236 297.377 66.952 296.465 68.464C295.553 69.952 294.293 71.128 292.685 71.992C291.077 72.856 289.253 73.288 287.213 73.288ZM287.213 68.68C288.149 68.68 288.989 68.464 289.733 68.032C290.477 67.6 291.065 66.988 291.497 66.196C291.929 65.38 292.145 64.42 292.145 63.316C292.145 62.188 291.929 61.228 291.497 60.436C291.065 59.644 290.477 59.032 289.733 58.6C288.989 58.168 288.149 57.952 287.213 57.952C286.277 57.952 285.437 58.168 284.693 58.6C283.949 59.032 283.349 59.644 282.893 60.436C282.461 61.228 282.245 62.188 282.245 63.316C282.245 64.42 282.461 65.38 282.893 66.196C283.349 66.988 283.949 67.6 284.693 68.032C285.437 68.464 286.277 68.68 287.213 68.68ZM313.359 53.344C314.895 53.344 316.263 53.656 317.463 54.28C318.687 54.88 319.647 55.816 320.343 57.088C321.039 58.336 321.387 59.944 321.387 61.912V73H315.771V62.776C315.771 61.216 315.423 60.064 314.727 59.32C314.055 58.576 313.095 58.204 311.847 58.204C310.959 58.204 310.155 58.396 309.435 58.78C308.739 59.14 308.187 59.704 307.779 60.472C307.395 61.24 307.203 62.224 307.203 63.424V73H301.587V53.632H306.951V58.996L305.943 57.376C306.639 56.08 307.635 55.084 308.931 54.388C310.227 53.692 311.703 53.344 313.359 53.344Z" fill="white"/>
<defs>
<linearGradient id="paint0_linear_17_32" x1="0.34613" y1="60" x2="398.005" y2="60" gradientUnits="userSpaceOnUse">
<stop stop-color="#FDB600"/>
<stop offset="0.494792" stop-color="#FF6B00"/>
<stop offset="1" stop-color="#FF5C00"/>
</linearGradient>
</defs>
</svg>
