<svg width="90" height="88" viewBox="0 0 90 88" fill="none" xmlns="http://www.w3.org/2000/svg">
<path d="M9.66665 71.1667V25.3334H76.3333V39.0417C79.3333 39.9584 82.1666 41.2917 84.6667 43.0834V25.3334C84.6667 20.7084 80.9583 17 76.3333 17H59.6666V8.66671C59.6666 4.04171 55.9583 0.333374 51.3333 0.333374H34.6666C30.0416 0.333374 26.3333 4.04171 26.3333 8.66671V17H9.66665C5.04165 17 1.37498 20.7084 1.37498 25.3334L1.33331 71.1667C1.33331 75.7917 5.04165 79.5 9.66665 79.5H41.6666C40.4166 76.9167 39.5833 74.125 39.1666 71.1667H9.66665ZM34.6666 8.66671H51.3333V17H34.6666V8.66671Z" fill="#4F4F4F"/>
<path d="M68 46.1666C56.5 46.1666 47.1667 55.5 47.1667 67C47.1667 78.5 56.5 87.8333 68 87.8333C79.5 87.8333 88.8334 78.5 88.8334 67C88.8334 55.5 79.5 46.1666 68 46.1666ZM74.875 76.7916L65.9167 67.8333V54.5H70.0834V66.125L77.7917 73.8333L74.875 76.7916Z" fill="#4F4F4F"/>
</svg>
