<svg width="100" height="100" viewBox="0 0 100 100" fill="none" xmlns="http://www.w3.org/2000/svg">
<path fill-rule="evenodd" clip-rule="evenodd" d="M68.3083 8.42078L68.5833 8.49578C73.1667 9.72494 76.7958 10.6958 79.65 11.7291C82.5708 12.7833 84.9542 13.9874 86.9167 15.8249C89.7729 18.5021 91.771 21.9662 92.6583 25.7791C93.2709 28.3958 93.125 31.0624 92.575 34.1166C92.0458 37.1083 91.075 40.7374 89.8458 45.3166L87.6125 53.6458C86.3875 58.2249 85.4125 61.8541 84.3833 64.7083C83.325 67.6291 82.1208 70.0124 80.2833 71.9749C77.6936 74.7402 74.3646 76.7041 70.6917 77.6333C69.6155 80.1004 68.0474 82.3221 66.0833 84.1624C64.1208 85.9999 61.7375 87.2041 58.8167 88.2624C55.9625 89.2958 52.3333 90.2666 47.7542 91.4958L47.475 91.5708C42.8917 92.7958 39.2667 93.7666 36.275 94.3041C33.2208 94.8499 30.5542 94.9958 27.9333 94.3874C24.121 93.4971 20.6583 91.496 17.9833 88.6374C16.15 86.6791 14.9417 84.2958 13.8833 81.3749C12.8542 78.5208 11.8833 74.8916 10.6542 70.3083L8.42084 61.9833C7.19584 57.3999 6.22084 53.7749 5.6875 50.7833C5.14167 47.7291 4.99584 45.0624 5.60417 42.4416C6.49455 38.6292 8.49559 35.1666 11.3542 32.4916C13.3125 30.6583 15.6958 29.4499 18.6167 28.3916C21.4708 27.3624 25.1 26.3916 29.6792 25.1624L29.8208 25.1208L32.95 24.2874C34.5833 18.4583 36.0167 14.3374 38.8167 11.3499C41.4922 8.49289 44.9548 6.49334 48.7667 5.60411C51.3875 4.99578 54.05 5.14161 57.1083 5.68744C60.0958 6.22078 63.725 7.19578 68.3083 8.42078ZM31.0625 31.2624C26.5083 32.4833 23.2458 33.3666 20.7375 34.2708C18.1958 35.1874 16.7083 36.0374 15.625 37.0541C13.6694 38.8846 12.3006 41.2539 11.6917 43.8624C11.3583 45.3124 11.3625 47.0291 11.8417 49.6833C12.3208 52.3791 13.225 55.7541 14.4958 60.5041L16.6542 68.5541C17.925 73.3041 18.8333 76.6791 19.7625 79.2499C20.6792 81.7916 21.5292 83.2833 22.5458 84.3666C24.3763 86.3222 26.7457 87.6911 29.3542 88.2999C30.8 88.6333 32.5208 88.6249 35.175 88.1499C37.8708 87.6708 41.2458 86.7666 45.9958 85.4958C50.7458 84.2208 54.1208 83.3166 56.6958 82.3833C59.2333 81.4666 60.725 80.6166 61.8083 79.6041C62.3833 79.0624 62.9042 78.4791 63.375 77.8583C62.602 77.7478 61.8323 77.6158 61.0667 77.4624C58.2667 76.9041 54.9 76.0041 50.7542 74.8916L50.5125 74.8291C45.9333 73.5999 42.3042 72.6291 39.45 71.5958C36.5292 70.5416 34.1458 69.3374 32.1833 67.4999C29.3256 64.8233 27.326 61.3591 26.4375 57.5458C25.8292 54.9291 25.975 52.2624 26.5208 49.2041C27.0542 46.2166 28.0292 42.5874 29.2542 38.0083L31.0625 31.2624ZM56.0083 11.8416C53.35 11.3624 51.6333 11.3541 50.1875 11.6916C47.579 12.3005 45.2096 13.6693 43.3792 15.6249C41.5625 17.5624 40.4417 20.5624 38.5 27.6791C38.1833 28.8374 37.85 30.0833 37.4875 31.4374L35.3292 39.4874C34.0583 44.2374 33.1542 47.6124 32.675 50.3083C32.1958 52.9624 32.1875 54.6833 32.525 56.1291C33.1339 58.7376 34.5027 61.107 36.4583 62.9374C37.5417 63.9541 39.0333 64.7999 41.5708 65.7208C44.1458 66.6499 47.5208 67.5541 52.2708 68.8291C56.5417 69.9749 59.7083 70.8208 62.2833 71.3291C64.8458 71.8416 66.5875 71.9666 68.0125 71.7916C68.325 71.7499 68.6208 71.6999 68.9125 71.6333C71.521 71.0244 73.8904 69.6556 75.7208 67.6999C76.7375 66.6166 77.5875 65.1249 78.5042 62.5874C79.4333 60.0124 80.3375 56.6374 81.6125 51.8874L83.7708 43.8374C85.0417 39.0874 85.9458 35.7124 86.425 33.0166C86.9 30.3624 86.9125 28.6416 86.575 27.1958C85.9661 24.5873 84.5973 22.2179 82.6417 20.3874C81.5583 19.3708 80.0667 18.5249 77.5292 17.6041C74.95 16.6749 71.5792 15.7708 66.8292 14.4958C62.0792 13.2249 58.7042 12.3208 56.0083 11.8416ZM46.05 40.8583C46.1564 40.4618 46.3398 40.0902 46.5898 39.7646C46.8398 39.439 47.1515 39.1659 47.5071 38.9608C47.8627 38.7558 48.2552 38.6227 48.6622 38.5694C49.0692 38.5161 49.4827 38.5434 49.8792 38.6499L70.0042 44.0416C70.7825 44.2756 71.4391 44.8037 71.8345 45.5138C72.23 46.2239 72.3332 47.0601 72.1223 47.845C71.9115 48.63 71.4031 49.3019 70.705 49.7182C70.007 50.1345 69.1742 50.2625 68.3833 50.0749L48.2583 44.6833C47.4585 44.4684 46.7767 43.9449 46.3627 43.2277C45.9486 42.5105 45.8362 41.6583 46.05 40.8583ZM42.8125 52.9333C42.9188 52.5364 43.1024 52.1643 43.3527 51.8384C43.603 51.5125 43.9151 51.2392 44.2711 51.034C44.6272 50.8289 45.0202 50.696 45.4277 50.643C45.8352 50.59 46.2491 50.6178 46.6458 50.7249L58.7167 53.9583C59.5173 54.1727 60.2 54.6963 60.6145 55.414C61.029 56.1317 61.1415 56.9847 60.9271 57.7854C60.7127 58.586 60.1891 59.2686 59.4713 59.6832C58.7536 60.0977 57.9006 60.2102 57.1 59.9958L45.025 56.7583C44.2252 56.5434 43.5434 56.0199 43.1293 55.3027C42.7153 54.5855 42.6028 53.7333 42.8167 52.9333H42.8125Z" fill="#4F4F4F"/>
</svg>
