<svg width="835" height="1137" viewBox="0 0 835 1137" fill="none" xmlns="http://www.w3.org/2000/svg">
<g filter="url(#filter0_ddddd_22_37)">
<path d="M436.744 104.192L435.242 103.011C442.002 94.4268 449.106 86.3572 456.36 78.8027L457.712 80.1334C450.501 87.6235 443.44 95.736 436.744 104.192Z" fill="url(#paint0_linear_22_37)"/>
<path d="M428.728 111.241L421.806 119.968L423.286 121.142L430.208 112.415L428.728 111.241Z" fill="url(#paint1_linear_22_37)"/>
<path d="M577.64 203.753C624.276 128.787 630.628 54.9163 596.676 31.008C562.724 7.09973 495.313 37.9615 440.436 107.132L283.615 304.944L444.406 418.176L577.64 203.753Z" fill="url(#paint2_linear_22_37)"/>
<path opacity="0.1" d="M559.29 190.833L422.794 403.024L406.097 371.111L541.67 177.527C580 122.778 601.483 72.751 601.569 44.8938C601.565 44.3553 601.752 43.8326 602.097 43.4189C602.442 43.0052 602.922 42.7273 603.453 42.6346C603.983 42.5418 604.529 42.6404 604.994 42.9126C605.459 43.1848 605.812 43.6131 605.99 44.1212C615.648 71.914 598.908 129.259 559.29 190.833Z" fill="white"/>
<path d="M444.309 418.126C466.016 387.297 447.615 336.958 403.208 305.691C358.802 274.423 305.206 274.068 283.499 304.896C261.792 335.725 280.194 386.064 324.6 417.331C369.007 448.599 422.602 448.954 444.309 418.126Z" fill="url(#paint3_linear_22_37)"/>
<path opacity="0.5" d="M444.309 418.126C466.016 387.297 447.615 336.958 403.208 305.691C358.802 274.423 305.206 274.068 283.499 304.896C261.792 335.725 280.194 386.064 324.6 417.331C369.007 448.599 422.602 448.954 444.309 418.126Z" fill="white"/>
<path opacity="0.1" d="M427.623 270.756C392.34 245.903 352.314 238.8 326.753 250.41L286.942 300.588C310.55 274.233 361.006 276.035 403.2 305.738C445.393 335.441 464.129 382.421 447.217 413.476L480.633 359.822C483.509 331.643 463.292 295.866 427.623 270.756Z" fill="black"/>
<path opacity="0.2" d="M484.131 108.978C474.345 124.473 466.962 153.468 496.043 173.921C525.123 194.374 549.933 177.698 561.2 163.19L484.131 108.978Z" fill="black"/>
<path d="M568.068 145.334C564.741 173.02 532.742 193.215 499.154 169.564C465.567 145.914 473.787 108.978 498.725 96.5948C514.092 88.9115 533.665 92.3025 547.057 101.617C560.449 110.931 570.128 128.165 568.068 145.334Z" fill="white"/>
<path d="M503.726 163.018C490.656 153.833 483.96 141.814 484.904 129.238C485.333 123.81 487.159 118.585 490.205 114.072C493.252 109.559 497.414 105.911 502.288 103.484C513.963 97.6461 530.488 99.4704 542.485 107.905C554.482 116.339 561.801 131.319 560.191 144.282C559.553 149.674 557.532 154.809 554.324 159.19C551.117 163.571 546.832 167.048 541.884 169.285C530.424 174.479 516.796 172.225 503.726 163.018Z" fill="url(#paint4_linear_22_37)"/>
<path opacity="0.3" d="M503.726 163.018C490.656 153.833 483.96 141.814 484.904 129.238C485.333 123.81 487.159 118.585 490.205 114.072C493.252 109.559 497.414 105.911 502.288 103.484C513.963 97.6461 530.488 99.4704 542.485 107.905C554.482 116.339 561.801 131.319 560.191 144.282C559.553 149.674 557.532 154.809 554.324 159.19C551.117 163.571 546.832 167.048 541.884 169.285C530.424 174.479 516.796 172.225 503.726 163.018Z" fill="black"/>
<path d="M503.726 163.018C490.656 153.833 483.724 142.158 484.239 130.182C484.462 125.091 486.087 120.16 488.935 115.933C491.782 111.707 495.743 108.349 500.378 106.231C511.602 101.037 527.806 103.312 539.803 111.768C551.8 120.224 559.397 134.71 558.281 147.029C557.848 152.115 556.015 156.981 552.984 161.088C549.953 165.194 545.844 168.381 541.112 170.294C530.102 174.822 516.796 172.225 503.726 163.018Z" fill="url(#paint5_linear_22_37)"/>
<path opacity="0.2" d="M503.726 163.018C490.656 153.833 483.724 142.158 484.239 130.182C484.462 125.091 486.087 120.16 488.935 115.933C491.782 111.707 495.743 108.349 500.378 106.231C511.602 101.037 527.806 103.312 539.803 111.768C551.8 120.224 559.397 134.71 558.281 147.029C557.848 152.115 556.015 156.981 552.984 161.088C549.953 165.194 545.844 168.381 541.112 170.294C530.102 174.822 516.796 172.225 503.726 163.018Z" fill="white"/>
<path opacity="0.3" d="M548.902 120.245L488.488 146.9C485.492 141.851 484.002 136.05 484.196 130.182C484.31 127.418 484.853 124.688 485.805 122.091L524.801 104.921C534.266 107.32 542.703 112.709 548.86 120.288L548.902 120.245Z" fill="white"/>
<path opacity="0.3" d="M557.573 137.436L502.138 161.86C498.804 159.414 495.765 156.591 493.081 153.447L553.388 126.834C555.272 130.155 556.681 133.724 557.573 137.436Z" fill="white"/>
<path opacity="0.1" d="M618.009 89.6411C616.163 74.8325 604.789 57.7061 586.804 45.0438C568.819 32.3814 548.881 27.4453 534.309 30.686C559.097 20.5775 581.31 20.1912 596.676 31.0079C612.043 41.8246 619.168 62.8999 618.009 89.6411Z" fill="black"/>
<g opacity="0.5" filter="url(#filter1_d_22_37)">
<path d="M403.175 357.758C409.937 348.154 404.46 332.651 390.94 323.131C377.42 313.612 360.978 313.681 354.216 323.285C347.453 332.889 352.931 348.392 366.451 357.912C379.97 367.431 396.412 367.362 403.175 357.758Z" fill="url(#paint6_linear_22_37)"/>
</g>
<g opacity="0.5" filter="url(#filter2_d_22_37)">
<path d="M339.415 348.747C332.655 358.341 316.215 358.427 302.695 348.898C289.174 339.369 283.68 323.873 290.44 314.28C297.2 304.687 313.662 304.601 327.182 314.13C340.703 323.659 346.09 339.154 339.415 348.747Z" fill="url(#paint7_linear_22_37)"/>
</g>
<g opacity="0.5" filter="url(#filter3_d_22_37)">
<path d="M433.224 414.87C426.464 424.485 410.024 424.55 396.503 415.021C382.983 405.492 377.51 389.996 384.27 380.403C391.031 370.81 407.47 370.724 420.991 380.253C434.512 389.782 439.985 405.277 433.224 414.87Z" fill="url(#paint8_linear_22_37)"/>
</g>
<g opacity="0.5" filter="url(#filter4_d_22_37)">
<path d="M369.462 405.835C362.701 415.428 346.262 415.493 332.741 405.985C319.22 396.478 313.747 380.961 320.508 371.346C327.268 361.731 343.708 361.689 357.229 371.196C370.75 380.704 376.136 396.22 369.462 405.835Z" fill="url(#paint9_linear_22_37)"/>
</g>
<path opacity="0.5" d="M403.2 357.804C402.485 358.818 401.649 359.741 400.71 360.552C404.466 350.98 398.8 337.695 386.717 329.196C374.634 320.697 360.233 319.839 352.486 326.578C352.941 325.435 353.524 324.348 354.224 323.337C360.984 313.744 377.446 313.658 390.966 323.187C404.487 332.716 409.938 348.19 403.2 357.804Z" fill="url(#paint10_linear_22_37)"/>
<path opacity="0.5" d="M339.416 348.747C338.703 349.756 337.875 350.678 336.948 351.494C340.703 341.901 335.059 328.637 322.955 320.117C310.85 311.597 296.471 310.76 288.723 317.52C289.174 316.376 289.757 315.288 290.462 314.28C297.222 304.665 313.662 304.6 327.183 314.129C340.703 323.658 346.09 339.132 339.416 348.747Z" fill="url(#paint11_linear_22_37)"/>
<path opacity="0.5" d="M433.224 414.892C432.512 415.894 431.683 416.809 430.756 417.618C434.512 408.024 428.846 394.761 416.763 386.262C404.68 377.763 390.28 376.883 382.532 383.665C382.978 382.512 383.562 381.417 384.27 380.403C391.031 370.788 407.47 370.724 420.991 380.253C434.512 389.782 440.006 405.277 433.224 414.892Z" fill="url(#paint12_linear_22_37)"/>
<path opacity="0.5" d="M369.462 405.835C368.761 406.847 367.931 407.763 366.994 408.561C370.75 398.989 365.084 385.704 353.001 377.205C340.918 368.707 326.517 367.848 318.77 374.608C319.211 373.453 319.795 372.357 320.508 371.346C327.268 361.731 343.708 361.689 357.229 371.196C370.75 380.704 376.136 396.22 369.462 405.835Z" fill="url(#paint13_linear_22_37)"/>
<path d="M390.022 180.166C390.022 180.166 361.049 217.767 335.81 250.131C332.226 254.643 327.53 258.145 322.183 260.294C316.836 262.442 311.023 263.163 305.313 262.385C283.272 259.66 247.367 275.262 247.367 275.262C247.367 275.262 315.293 163.683 390.022 180.166Z" fill="url(#paint14_linear_22_37)"/>
<path opacity="0.3" d="M390.022 180.166C390.022 180.166 361.049 217.767 335.81 250.131C332.226 254.643 327.53 258.145 322.183 260.294C316.836 262.442 311.023 263.163 305.313 262.385C283.272 259.66 247.367 275.262 247.367 275.262C247.367 275.262 315.293 163.683 390.022 180.166Z" fill="black"/>
<path d="M525.896 275.864C525.896 275.864 500.378 315.804 478.294 350.464C475.255 355.359 473.542 360.961 473.324 366.718C473.106 372.475 474.39 378.19 477.049 383.301C487.05 403.153 484.432 442.299 484.432 442.299C484.432 442.299 566.608 340.635 525.896 275.864Z" fill="url(#paint15_linear_22_37)"/>
<path opacity="0.3" d="M525.896 275.864C525.896 275.864 500.378 315.804 478.294 350.464C475.255 355.359 473.542 360.961 473.324 366.718C473.106 372.475 474.39 378.19 477.049 383.301C487.05 403.153 484.432 442.299 484.432 442.299C484.432 442.299 566.608 340.635 525.896 275.864Z" fill="black"/>
<path d="M619.511 562.999C646.317 497.412 530.424 478.826 484.561 495.287C438.697 511.748 391.932 523.981 390.129 480.092C388.327 436.203 423.652 408.99 406.805 398.86C397.469 393.237 394.808 403.152 390.194 417.618C376.072 461.936 296.085 472.495 332.891 536.644C369.698 600.793 350.061 586.864 288.144 612.597C226.227 638.329 258.097 712.436 317.997 712.436H678.724C844.064 712.436 687.523 395.963 619.511 562.999Z" fill="url(#paint16_linear_22_37)"/>
<path opacity="0.6" d="M619.511 562.999C646.317 497.412 530.424 478.826 484.561 495.287C438.697 511.748 391.932 523.981 390.129 480.092C388.327 436.203 423.652 408.99 406.805 398.86C397.469 393.237 394.808 403.152 390.194 417.618C376.072 461.936 296.085 472.495 332.891 536.644C369.698 600.793 350.061 586.864 288.144 612.597C226.227 638.329 258.097 712.436 317.997 712.436H678.724C844.064 712.436 687.523 395.963 619.511 562.999Z" fill="white"/>
<path d="M314.842 334.389C310.035 317.692 284.023 338.682 258.398 364.114C232.773 389.546 220.132 447.599 195.344 477.86C170.555 508.121 99.5818 535.463 127.332 581.005C168.259 648.115 74.1927 712.5 185.6 712.5H414.102C455.888 712.5 501.193 661.4 436.122 626.654C371.05 591.907 273.571 672.925 247.259 595.642C234.211 557.29 281.598 574.888 259.643 512.092C237.687 449.295 239.147 432.19 250.328 404.204C277.542 335.999 322.246 359.757 314.842 334.389Z" fill="url(#paint17_linear_22_37)"/>
<path opacity="0.6" d="M314.842 334.389C310.035 317.692 284.023 338.682 258.398 364.114C232.773 389.546 220.132 447.599 195.344 477.86C170.555 508.121 99.5818 535.463 127.332 581.005C168.259 648.115 74.1927 712.5 185.6 712.5H414.102C455.888 712.5 501.193 661.4 436.122 626.654C371.05 591.907 273.571 672.925 247.259 595.642C234.211 557.29 281.598 574.888 259.643 512.092C237.687 449.295 239.147 432.19 250.328 404.204C277.542 335.999 322.246 359.757 314.842 334.389Z" fill="white"/>
<path d="M362.208 342.095C367.874 331.75 387.318 337.953 386.889 351.495C386.459 365.037 336.11 382.786 345.468 429.551C354.825 476.316 444.706 479.664 465.803 526.514C486.9 573.365 405.174 579.932 429.554 609.228C453.935 638.523 529.179 571.241 582.79 588.539C636.402 605.837 689.97 712.437 591.633 712.437H288.616C222.729 712.437 174.612 576.391 237.923 520.419C301.235 464.447 250.157 482.625 273.786 446.763C297.415 410.901 340.467 381.756 362.208 342.095Z" fill="url(#paint18_linear_22_37)"/>
<g opacity="0.8" filter="url(#filter5_d_22_37)">
<path d="M362.208 342.095C367.874 331.75 387.318 337.953 386.889 351.495C386.459 365.037 336.11 382.786 345.468 429.551C354.825 476.316 444.706 479.664 465.803 526.514C486.9 573.365 405.174 579.932 429.554 609.228C453.935 638.523 529.179 571.241 582.79 588.539C636.402 605.837 689.97 712.437 591.633 712.437H288.616C222.729 712.437 174.612 576.391 237.923 520.419C301.235 464.447 250.157 482.625 273.786 446.763C297.415 410.901 340.467 381.756 362.208 342.095Z" fill="url(#paint19_linear_22_37)" shape-rendering="crispEdges"/>
</g>
</g>
<defs>
<filter id="filter0_ddddd_22_37" x="0" y="0" width="873.024" height="1136.5" filterUnits="userSpaceOnUse" color-interpolation-filters="sRGB">
<feFlood flood-opacity="0" result="BackgroundImageFix"/>
<feColorMatrix in="SourceAlpha" type="matrix" values="0 0 0 0 0 0 0 0 0 0 0 0 0 0 0 0 0 0 127 0" result="hardAlpha"/>
<feOffset/>
<feColorMatrix type="matrix" values="0 0 0 0 0 0 0 0 0 0 0 0 0 0 0 0 0 0 0.04 0"/>
<feBlend mode="normal" in2="BackgroundImageFix" result="effect1_dropShadow_22_37"/>
<feColorMatrix in="SourceAlpha" type="matrix" values="0 0 0 0 0 0 0 0 0 0 0 0 0 0 0 0 0 0 127 0" result="hardAlpha"/>
<feOffset dy="19"/>
<feGaussianBlur stdDeviation="21"/>
<feColorMatrix type="matrix" values="0 0 0 0 0 0 0 0 0 0 0 0 0 0 0 0 0 0 0.04 0"/>
<feBlend mode="normal" in2="effect1_dropShadow_22_37" result="effect2_dropShadow_22_37"/>
<feColorMatrix in="SourceAlpha" type="matrix" values="0 0 0 0 0 0 0 0 0 0 0 0 0 0 0 0 0 0 127 0" result="hardAlpha"/>
<feOffset dy="76"/>
<feGaussianBlur stdDeviation="38"/>
<feColorMatrix type="matrix" values="0 0 0 0 0 0 0 0 0 0 0 0 0 0 0 0 0 0 0.03 0"/>
<feBlend mode="normal" in2="effect2_dropShadow_22_37" result="effect3_dropShadow_22_37"/>
<feColorMatrix in="SourceAlpha" type="matrix" values="0 0 0 0 0 0 0 0 0 0 0 0 0 0 0 0 0 0 127 0" result="hardAlpha"/>
<feOffset dy="171"/>
<feGaussianBlur stdDeviation="51"/>
<feColorMatrix type="matrix" values="0 0 0 0 0 0 0 0 0 0 0 0 0 0 0 0 0 0 0.02 0"/>
<feBlend mode="normal" in2="effect3_dropShadow_22_37" result="effect4_dropShadow_22_37"/>
<feColorMatrix in="SourceAlpha" type="matrix" values="0 0 0 0 0 0 0 0 0 0 0 0 0 0 0 0 0 0 127 0" result="hardAlpha"/>
<feOffset dy="303"/>
<feGaussianBlur stdDeviation="60.5"/>
<feColorMatrix type="matrix" values="0 0 0 0 0 0 0 0 0 0 0 0 0 0 0 0 0 0 0.01 0"/>
<feBlend mode="normal" in2="effect4_dropShadow_22_37" result="effect5_dropShadow_22_37"/>
<feBlend mode="normal" in="SourceGraphic" in2="effect5_dropShadow_22_37" result="shape"/>
</filter>
<filter id="filter1_d_22_37" x="347.318" y="316.037" width="62.7543" height="56.9697" filterUnits="userSpaceOnUse" color-interpolation-filters="sRGB">
<feFlood flood-opacity="0" result="BackgroundImageFix"/>
<feColorMatrix in="SourceAlpha" type="matrix" values="0 0 0 0 0 0 0 0 0 0 0 0 0 0 0 0 0 0 127 0" result="hardAlpha"/>
<feOffset dy="4"/>
<feGaussianBlur stdDeviation="2"/>
<feComposite in2="hardAlpha" operator="out"/>
<feColorMatrix type="matrix" values="0 0 0 0 0 0 0 0 0 0 0 0 0 0 0 0 0 0 0.25 0"/>
<feBlend mode="normal" in2="BackgroundImageFix" result="effect1_dropShadow_22_37"/>
<feBlend mode="normal" in="SourceGraphic" in2="effect1_dropShadow_22_37" result="shape"/>
</filter>
<filter id="filter2_d_22_37" x="283.547" y="307.034" width="62.7278" height="56.96" filterUnits="userSpaceOnUse" color-interpolation-filters="sRGB">
<feFlood flood-opacity="0" result="BackgroundImageFix"/>
<feColorMatrix in="SourceAlpha" type="matrix" values="0 0 0 0 0 0 0 0 0 0 0 0 0 0 0 0 0 0 127 0" result="hardAlpha"/>
<feOffset dy="4"/>
<feGaussianBlur stdDeviation="2"/>
<feComposite in2="hardAlpha" operator="out"/>
<feColorMatrix type="matrix" values="0 0 0 0 0 0 0 0 0 0 0 0 0 0 0 0 0 0 0.25 0"/>
<feBlend mode="normal" in2="BackgroundImageFix" result="effect1_dropShadow_22_37"/>
<feBlend mode="normal" in="SourceGraphic" in2="effect1_dropShadow_22_37" result="shape"/>
</filter>
<filter id="filter3_d_22_37" x="377.373" y="373.157" width="62.7485" height="56.9678" filterUnits="userSpaceOnUse" color-interpolation-filters="sRGB">
<feFlood flood-opacity="0" result="BackgroundImageFix"/>
<feColorMatrix in="SourceAlpha" type="matrix" values="0 0 0 0 0 0 0 0 0 0 0 0 0 0 0 0 0 0 127 0" result="hardAlpha"/>
<feOffset dy="4"/>
<feGaussianBlur stdDeviation="2"/>
<feComposite in2="hardAlpha" operator="out"/>
<feColorMatrix type="matrix" values="0 0 0 0 0 0 0 0 0 0 0 0 0 0 0 0 0 0 0.25 0"/>
<feBlend mode="normal" in2="BackgroundImageFix" result="effect1_dropShadow_22_37"/>
<feBlend mode="normal" in="SourceGraphic" in2="effect1_dropShadow_22_37" result="shape"/>
</filter>
<filter id="filter4_d_22_37" x="313.611" y="364.1" width="62.7108" height="56.9731" filterUnits="userSpaceOnUse" color-interpolation-filters="sRGB">
<feFlood flood-opacity="0" result="BackgroundImageFix"/>
<feColorMatrix in="SourceAlpha" type="matrix" values="0 0 0 0 0 0 0 0 0 0 0 0 0 0 0 0 0 0 127 0" result="hardAlpha"/>
<feOffset dy="4"/>
<feGaussianBlur stdDeviation="2"/>
<feComposite in2="hardAlpha" operator="out"/>
<feColorMatrix type="matrix" values="0 0 0 0 0 0 0 0 0 0 0 0 0 0 0 0 0 0 0.25 0"/>
<feBlend mode="normal" in2="BackgroundImageFix" result="effect1_dropShadow_22_37"/>
<feBlend mode="normal" in="SourceGraphic" in2="effect1_dropShadow_22_37" result="shape"/>
</filter>
<filter id="filter5_d_22_37" x="194.283" y="298.918" width="514.169" height="451.518" filterUnits="userSpaceOnUse" color-interpolation-filters="sRGB">
<feFlood flood-opacity="0" result="BackgroundImageFix"/>
<feColorMatrix in="SourceAlpha" type="matrix" values="0 0 0 0 0 0 0 0 0 0 0 0 0 0 0 0 0 0 127 0" result="hardAlpha"/>
<feOffset dx="24"/>
<feGaussianBlur stdDeviation="19"/>
<feComposite in2="hardAlpha" operator="out"/>
<feColorMatrix type="matrix" values="0 0 0 0 0 0 0 0 0 0 0 0 0 0 0 0 0 0 0.25 0"/>
<feBlend mode="normal" in2="BackgroundImageFix" result="effect1_dropShadow_22_37"/>
<feBlend mode="normal" in="SourceGraphic" in2="effect1_dropShadow_22_37" result="shape"/>
</filter>
<linearGradient id="paint0_linear_22_37" x1="435.242" y1="91.8228" x2="457.712" y2="91.8228" gradientUnits="userSpaceOnUse">
<stop stop-color="#51F09A"/>
<stop offset="1" stop-color="#18E2EF"/>
</linearGradient>
<linearGradient id="paint1_linear_22_37" x1="422.565" y1="120.57" x2="429.487" y2="111.843" gradientUnits="userSpaceOnUse">
<stop stop-color="#51F09A"/>
<stop offset="1" stop-color="#18E2EF"/>
</linearGradient>
<linearGradient id="paint2_linear_22_37" x1="283.615" y1="225.655" x2="618.128" y2="225.655" gradientUnits="userSpaceOnUse">
<stop stop-color="#B0EACB"/>
<stop offset="1" stop-color="#9DA5A6"/>
</linearGradient>
<linearGradient id="paint3_linear_22_37" x1="326.662" y1="418.783" x2="405.27" y2="307.142" gradientUnits="userSpaceOnUse">
<stop stop-color="#51F09A"/>
<stop offset="1" stop-color="#18E2EF"/>
</linearGradient>
<linearGradient id="paint4_linear_22_37" x1="484.816" y1="136.977" x2="560.412" y2="136.977" gradientUnits="userSpaceOnUse">
<stop stop-color="#51F09A"/>
<stop offset="1" stop-color="#18E2EF"/>
</linearGradient>
<linearGradient id="paint5_linear_22_37" x1="484.212" y1="138.852" x2="558.39" y2="138.852" gradientUnits="userSpaceOnUse">
<stop stop-color="#51F09A"/>
<stop offset="1" stop-color="#18E2EF"/>
</linearGradient>
<linearGradient id="paint6_linear_22_37" x1="367.078" y1="358.354" x2="391.568" y2="323.573" gradientUnits="userSpaceOnUse">
<stop stop-color="#51F09A"/>
<stop offset="1" stop-color="#18E2EF"/>
</linearGradient>
<linearGradient id="paint7_linear_22_37" x1="287.547" y1="332.141" x2="342.275" y2="332.141" gradientUnits="userSpaceOnUse">
<stop stop-color="#51F09A"/>
<stop offset="1" stop-color="#18E2EF"/>
</linearGradient>
<linearGradient id="paint8_linear_22_37" x1="381.373" y1="398.268" x2="436.122" y2="398.268" gradientUnits="userSpaceOnUse">
<stop stop-color="#51F09A"/>
<stop offset="1" stop-color="#18E2EF"/>
</linearGradient>
<linearGradient id="paint9_linear_22_37" x1="317.611" y1="389.215" x2="372.321" y2="389.215" gradientUnits="userSpaceOnUse">
<stop stop-color="#51F09A"/>
<stop offset="1" stop-color="#18E2EF"/>
</linearGradient>
<linearGradient id="paint10_linear_22_37" x1="352.486" y1="338.891" x2="406.087" y2="338.891" gradientUnits="userSpaceOnUse">
<stop stop-color="#51F09A"/>
<stop offset="1" stop-color="#18E2EF"/>
</linearGradient>
<linearGradient id="paint11_linear_22_37" x1="288.723" y1="329.83" x2="342.275" y2="329.83" gradientUnits="userSpaceOnUse">
<stop stop-color="#51F09A"/>
<stop offset="1" stop-color="#18E2EF"/>
</linearGradient>
<linearGradient id="paint12_linear_22_37" x1="382.532" y1="395.953" x2="436.131" y2="395.953" gradientUnits="userSpaceOnUse">
<stop stop-color="#51F09A"/>
<stop offset="1" stop-color="#18E2EF"/>
</linearGradient>
<linearGradient id="paint13_linear_22_37" x1="318.77" y1="386.9" x2="372.321" y2="386.9" gradientUnits="userSpaceOnUse">
<stop stop-color="#51F09A"/>
<stop offset="1" stop-color="#18E2EF"/>
</linearGradient>
<linearGradient id="paint14_linear_22_37" x1="247.367" y1="228.124" x2="390.022" y2="228.124" gradientUnits="userSpaceOnUse">
<stop stop-color="#51F09A"/>
<stop offset="1" stop-color="#18E2EF"/>
</linearGradient>
<linearGradient id="paint15_linear_22_37" x1="473.3" y1="361.215" x2="537.218" y2="361.215" gradientUnits="userSpaceOnUse">
<stop stop-color="#51F09A"/>
<stop offset="1" stop-color="#18E2EF"/>
</linearGradient>
<linearGradient id="paint16_linear_22_37" x1="254.579" y1="558.89" x2="752.024" y2="558.89" gradientUnits="userSpaceOnUse">
<stop stop-color="#51F09A"/>
<stop offset="1" stop-color="#18E2EF"/>
</linearGradient>
<linearGradient id="paint17_linear_22_37" x1="121" y1="525.381" x2="468.8" y2="525.381" gradientUnits="userSpaceOnUse">
<stop stop-color="#51F09A"/>
<stop offset="1" stop-color="#18E2EF"/>
</linearGradient>
<linearGradient id="paint18_linear_22_37" x1="208.283" y1="529.492" x2="646.452" y2="529.492" gradientUnits="userSpaceOnUse">
<stop stop-color="#51F09A"/>
<stop offset="1" stop-color="#18E2EF"/>
</linearGradient>
<linearGradient id="paint19_linear_22_37" x1="427.367" y1="336.918" x2="427.367" y2="712.437" gradientUnits="userSpaceOnUse">
<stop stop-color="#FFFB93"/>
<stop offset="1" stop-color="#FFFB93" stop-opacity="0"/>
</linearGradient>
</defs>
</svg>
