<svg width="129" height="118" viewBox="0 0 129 118" fill="none" xmlns="http://www.w3.org/2000/svg">
<path opacity="0.3" d="M128.243 91.8618C122.224 99.1456 114.828 105.172 106.48 109.598C98.1309 114.024 88.9922 116.762 79.5854 117.656C70.1785 118.55 60.6877 117.582 51.6548 114.808C42.6219 112.034 34.2238 107.508 26.94 101.489C19.6563 95.4693 13.6295 88.0741 9.20372 79.7254C4.77797 71.3767 2.03996 62.238 1.14601 52.8312C0.25206 43.4243 1.21968 33.9335 3.99363 24.9006C6.76757 15.8677 11.2935 7.46962 17.313 0.185852L35.5324 15.2429C31.4902 20.1341 28.451 25.7735 26.5882 31.8392C24.7255 37.905 24.0757 44.2782 24.676 50.5951C25.2763 56.9119 27.1149 63.0487 30.0869 68.655C33.0588 74.2613 37.1059 79.2273 41.9971 83.2695C46.8883 87.3117 52.5277 90.3509 58.5934 92.2137C64.6592 94.0764 71.0324 94.7262 77.3493 94.1259C83.6661 93.5256 89.8029 91.687 95.4092 88.715C101.015 85.7431 105.981 81.696 110.024 76.8048L128.243 91.8618Z" fill="#9B51E0"/>
</svg>
